HIERARCHY
ROOT Hips
{
  OFFSET -33.9132 29.2015 117.021
  CHANNELS 6 Xposition Yposition Zposition Zrotation Xrotation Yrotation
  JOINT LeftUpLeg
  {
    OFFSET 8.64259 1.95398 -2.38835
    CHANNELS 3 Zrotation Xrotation Yrotation
    JOINT LeftLeg
    {
      OFFSET 43.7702 0 0
      CHANNELS 3 Zrotation Xrotation Yrotation
      JOINT LeftFoot
      {
        OFFSET 40.6238 0 0
        CHANNELS 3 Zrotation Xrotation Yrotation
        JOINT LeftToeBase
        {
          OFFSET 12.7242 0 0
          CHANNELS 3 Zrotation Xrotation Yrotation
          End Site
          {
            OFFSET 0 0 0
          }
        }
      }
    }
  }
  JOINT RightUpLeg
  {
    OFFSET -8.2249 1.95398 -2.59336
    CHANNELS 3 Zrotation Xrotation Yrotation
    JOINT RightLeg
    {
      OFFSET 43.5653 0 0
      CHANNELS 3 Zrotation Xrotation Yrotation
      JOINT RightFoot
      {
        OFFSET 40.6238 0 0
        CHANNELS 3 Zrotation Xrotation Yrotation
        JOINT RightToeBase
        {
          OFFSET 12.7242 0 0
          CHANNELS 3 Zrotation Xrotation Yrotation
          End Site
          {
            OFFSET 0 0 0
          }
        }
      }
    }
  }
  JOINT Spine
  {
    OFFSET 0.165834 0.87714 6.61349
    CHANNELS 3 Zrotation Xrotation Yrotation
    JOINT Spine1
    {
      OFFSET 7.38963 1.71661e-005 0
      CHANNELS 3 Zrotation Xrotation Yrotation
      JOINT Spine2
      {
        OFFSET 11.9445 1.14441e-005 0
        CHANNELS 3 Zrotation Xrotation Yrotation
        JOINT Spine3
        {
          OFFSET 14.7254 4.19617e-005 0
          CHANNELS 3 Zrotation Xrotation Yrotation
          JOINT Spine4
          {
            OFFSET 10.9679 0 0
            CHANNELS 3 Zrotation Xrotation Yrotation
            JOINT RightShoulder
            {
              OFFSET 2.46616 -1.6653 3.69651
              CHANNELS 3 Zrotation Xrotation Yrotation
              JOINT RightArm
              {
                OFFSET 13.0012 0 0
                CHANNELS 3 Zrotation Xrotation Yrotation
                JOINT RightForeArm
                {
                  OFFSET 28.7848 1.62311e-005 0
                  CHANNELS 3 Zrotation Xrotation Yrotation
                  JOINT RightHand
                  {
                    OFFSET 26.5688 1.62095e-005 0
                    CHANNELS 3 Zrotation Xrotation Yrotation
                    End Site
                    {
                      OFFSET 0 0 0
                    }
                  }
                }
              }
            }
            JOINT LeftShoulder
            {
              OFFSET 2.38034 -1.29275 -3.7523
              CHANNELS 3 Zrotation Xrotation Yrotation
              JOINT LeftArm
              {
                OFFSET 16.3182 6.07031e-005 0
                CHANNELS 3 Zrotation Xrotation Yrotation
                JOINT LeftForeArm
                {
                  OFFSET 27.0901 0 0
                  CHANNELS 3 Zrotation Xrotation Yrotation
                  JOINT LeftHand
                  {
                    OFFSET 24.5451 1.51738e-005 0
                    CHANNELS 3 Zrotation Xrotation Yrotation
                    End Site
                    {
                      OFFSET 0 0 0
                    }
                  }
                }
              }
            }
            JOINT Neck
            {
              OFFSET 5.0226 -0.0266342 0
              CHANNELS 3 Zrotation Xrotation Yrotation
              JOINT Head
              {
                OFFSET 6.69364 2.86102e-005 0
                CHANNELS 3 Zrotation Xrotation Yrotation
                End Site
                {
                  OFFSET 0 0 0
                }
              }
            }
          }
        }
      }
    }
  }
}
MOTION
Frames:	14
Frame Time:	0.0416667
105.287 84.4397 212.023 -89.207 48.5402 -91.7379 -167.582 -9.88767 88.8122 -39.9565 0.103708 -3.3234 103.569 26.5058 -9.24566 45.1658 4.87678 9.10053 174.04 51.1016 97.1789 -55.2183 -23.6528 1.63272 66.64 -4.36808 -3.52553 16.6096 1.84483 10.4612 -0.917643 9.58367 -90.0146 7.70477 -1.83843 0.0592555 -3.96489 -1.83403 0.14013 -26.5099 -1.7712 -0.496186 -6.49722 -1.77121 -0.496195 94.3863 -24.7817 -99.3897 44.4841 -3.07678 42.6463 -51.0651 -11.8996 -80.8763 -40.306 7.49874 -25.8994 -90.0505 -42.9418 77.0124 -13.372 -2.92309 -16.2718 30.0959 27.8935 -53.7304 18.9155 -13.5243 -64.4287 26.3884 5.53419 -3.00711 1.06598 6.46289 2.50611 
109.725 84.9595 215.309 -92.8806 50.2857 -89.3421 -166.278 -6.64468 88.8748 -44.8275 -3.45342 -3.9802 106.859 26.2598 -12.2135 42.9157 3.74625 8.99598 174.52 49.2569 97.3778 -52.1675 -18.5377 1.6874 69.0979 -5.63649 -1.102 20.1909 1.54316 7.41428 -0.547789 9.97744 -89.7898 6.92179 -1.00415 0.459126 -4.74887 -0.982975 0.502879 -27.2871 -1.0957 0.136083 -7.27444 -1.09572 0.136081 94.0283 -24.1911 -100.377 43.8543 -10.2575 42.1355 -28.4067 -3.86734 -90.1081 -50.0448 8.01604 -22.4326 -89.8903 -45.411 77.8707 -18.718 5.44376 3.045 28.6524 28.8203 -51.3219 20.069 -13.1825 -60.482 24.7334 4.46032 -4.46891 2.94972 5.94615 2.46945 
113.327 86.1208 216.864 -95.7247 50.1003 -87.5569 -165.691 -4.09512 89.6954 -47.6658 -2.97411 -3.89368 103.166 24.4598 -11.0419 42.9416 3.96641 8.23493 175.042 48.3704 96.8038 -54.8825 -13.1062 0.960144 67.632 -4.7621 -2.95401 16.9586 2.0018 9.7118 -0.158332 10.1199 -89.814 6.63437 -0.236959 0.375365 -5.03662 -0.220207 0.385431 -27.5717 -0.338819 0.286799 -7.559 -0.338808 0.286805 93.9982 -22.5372 -100.987 38.4934 -5.22908 49.6317 -33.339 1.99856 -96.5771 -47.6866 10.8231 -29.6929 -89.3574 -46.0388 78.8476 -22.7766 12.3383 22.2212 25.4761 21.7991 -53.0035 17.5818 -11.7067 -60.5775 21.7009 2.86265 -4.21149 4.88131 4.27849 2.53018 
116.178 87.3387 217.528 -95.6716 46.2791 -87.6807 -167.016 -1.75237 90.6562 -47.4354 0.0678516 -2.37999 102.391 25.0757 -9.92026 39.5218 2.25123 8.09048 174.967 48.6723 94.3241 -58.9211 -15.0438 0.246459 66.1948 -3.61168 -2.91663 18.2515 2.2106 7.6998 -0.0713798 10.1058 -89.8808 6.66228 -0.0917548 0.238128 -5.00868 -0.0811506 0.241922 -27.5437 -0.159086 0.199539 -7.53105 -0.159059 0.19954 93.7721 -22.6921 -101.448 35.1785 -0.890604 56.8134 -39.7304 6.20352 -101.298 -49.5857 10.4205 -27.8276 -87.677 -42.4071 80.7599 -26.622 16.8514 33.6154 25.6246 18.3047 -54.5981 19.7914 -12.9364 -60.2006 19.9806 0.66486 -6.12577 5.68963 2.77946 3.23105 
118.145 88.3935 217.294 -96.5672 45.0217 -87.2398 -168.278 -2.79747 91.0094 -44.3777 -1.60016 -1.49991 102.363 24.2662 -11.332 36.6338 0.40337 9.0893 176.457 47.2509 92.2681 -60.8214 -16.9497 -0.951186 65.1435 -3.02 -3.41572 18.5396 1.27882 10.0941 0.191085 10.0264 -89.9819 6.8209 0.389377 0.0201225 -4.84998 0.389894 0.00295531 -27.3856 0.365318 0.136221 -7.3729 0.365328 0.136217 94.4616 -21.4513 -100.284 31.2165 5.94398 62.2928 -55.1277 10.1725 -100.78 -42.8363 9.90199 -30.4318 -87.7153 -41.5934 80.5294 -27.3845 17.6016 40.118 27.266 17.4149 -55.537 20.1928 -12.8408 -58.9302 18.1268 -0.69541 -5.13628 5.82467 1.02477 2.38581 
119.597 89.3662 216.345 -96.6124 45.6506 -86.9161 -168.653 -3.31495 91.77 -41.9323 -0.818689 -1.10552 99.3992 23.4116 -9.49952 36.6609 0.268843 9.50911 177.558 45.9676 91.8001 -60.7878 -16.6155 -1.60064 65.4497 -3.27084 -3.25256 19.4937 0.950161 10.018 0.319743 9.83482 -89.9603 7.20419 0.655682 0.048195 -4.4666 0.657177 0.0192841 -27.003 0.610867 0.24303 -6.9903 0.610886 0.243035 94.1968 -21.4859 -100.888 31.3552 5.46328 64.0715 -57.8661 11.7341 -101.082 -41.2305 9.22469 -29.7589 -87.3337 -42.1671 81.277 -25.8739 14.3462 42.9606 30.4262 18.7258 -57.1762 22.3588 -13.4968 -56.7917 16.781 -0.793139 -4.6297 6.4062 0.686161 1.7566 
120.565 90.2155 214.719 -96.9391 46.3396 -86.5706 -168.437 -5.1933 93.0511 -38.2237 0.0523443 -0.982331 97.0354 22.526 -8.48895 36.8149 0.324744 9.58711 177.708 44.2389 91.2682 -60.2716 -15.4816 -1.80667 66.5586 -4.00861 -2.84615 20.9969 0.470088 9.78971 0.322628 9.75574 -89.9411 7.36217 0.669698 0.0841846 -4.3086 0.67276 0.0546173 -26.845 0.613424 0.281574 -6.8323 0.613452 0.281565 94.1349 -21.2802 -101.104 34.1004 0.687823 63.5093 -51.9548 10.5731 -102.075 -42.1357 9.48951 -29.8624 -87.2308 -43.2581 81.6608 -25.1433 12.7678 40.2206 29.2524 21.4177 -55.1443 23.916 -14.2952 -56.4596 17.5808 -0.661996 -3.88603 5.43655 0.607554 1.65963 
121.166 90.6216 212.322 -96.4982 47.0141 -87.3152 -167.797 -7.33643 94.389 -34.3009 0.883987 -1.19792 95.484 21.2876 -8.80269 37.0182 0.127992 10.4658 178.525 42.801 89.7288 -60.7728 -13.1852 -2.46953 68.8578 -5.49638 -1.74729 24.6211 -0.644786 9.04366 0.219231 9.60592 -89.8625 7.66145 0.497313 0.245609 -4.00942 0.507651 0.223479 -26.5449 0.400496 0.383719 -6.5323 0.400497 0.383711 94.007 -22.0251 -101.142 38.448 -5.32701 60.594 -44.9368 6.87453 -100.575 -47.2321 10.5405 -29.3197 -87.5572 -45.3049 81.5325 -23.9037 11.0995 33.7128 29.6381 24.0873 -54.4124 28.0034 -15.3736 -52.7741 18.1681 -0.277046 -3.9217 4.82051 1.01052 1.82692 
121.47 90.8229 209.026 -95.2099 44.3776 -88.7366 -167.548 -9.40572 96.6217 -29.497 3.90454 -0.505363 93.7908 20.1641 -9.11943 37.977 0.48133 10.9852 179.465 41.4047 86.4475 -64.3102 -11.5181 -3.67643 72.1325 -8.01143 -2.18087 27.0791 -1.36088 8.28847 -0.0327031 9.48538 -89.8366 7.90332 0.00612619 0.323437 -3.76767 0.0203586 0.322849 -26.3025 -0.091372 0.310324 -6.28985 -0.0913657 0.310322 93.7402 -23.5903 -101.214 43.4034 -9.99349 59.8877 -38.1059 2.49878 -98.2744 -50.2999 8.79615 -23.9752 -88.924 -46.9161 79.7142 -20.5309 10.3632 20.0568 29.3674 27.2214 -52.7245 29.3117 -15.8831 -52.1885 18.2068 -0.579374 -4.92062 5.56338 1.05238 2.17359 
120.961 90.6819 204.741 -93.1732 38.5539 -91.1582 -167.298 -11.9965 99.5212 -22.0705 9.19189 0.673545 90.9448 19.1013 -9.1218 39.0318 0.831059 11.7025 179.925 38.3721 81.3057 -68.8621 -10.7494 -5.13907 75.9472 -10.7532 -2.40694 29.3482 -1.90093 6.95929 -0.49719 9.23362 -89.8971 8.40704 -0.946775 0.25991 -3.2636 -0.934416 0.301324 -25.8014 -0.981108 -0.0366754 -5.78875 -0.98111 -0.0366793 94.3803 -24.1046 -99.62 48.0633 -8.86177 60.145 -36.1739 -0.905933 -89.4251 -46.5047 9.47916 -27.3096 -90.0114 -48.4575 78.3744 -15.6154 11.6745 1.10087 28.9805 28.7248 -52.1013 31.4225 -17.3105 -52.8908 19.3385 -1.44874 -5.56585 4.37198 0.455445 2.41832 
120.561 89.7703 199.428 -90.5883 33.3712 -92.4663 -165.432 -12.32 104.43 -16.122 15.208 1.35943 88.0527 17.6474 -8.95683 40.4965 1.50114 12.1835 -179.911 34.5423 79.3287 -72.8869 -11.4278 -6.09111 77.2419 -11.4497 -1.02322 26.3359 -0.399934 5.67862 -0.887193 8.83113 -90.1473 9.21096 -1.83538 -0.159661 -2.45869 -1.84062 -0.078708 -25.003 -1.7025 -0.704038 -4.99041 -1.70251 -0.704049 93.8121 -23.4236 -101.108 50.5636 -4.59287 64.3396 -39.6459 -6.37547 -84.2925 -39.2122 10.3346 -34.1272 -90.0291 -47.7806 78.1963 -14.8453 12.1196 -17.8892 29.9131 30.027 -52.6803 28.5587 -17.1478 -56.8266 18.8704 -1.92838 -4.1683 4.74626 -0.481342 1.81858 
119.77 88.334 193.101 -88.8316 30.5658 -92.6541 -164.522 -12.7008 108.493 -13.0083 18.9523 2.79422 81.6966 15.9047 -4.93649 45.9877 4.13631 14.0257 177.495 28.0733 81.2266 -69.3052 -11.2613 -5.56905 75.9872 -11.0591 -2.83563 35.3656 -3.47518 2.85969 -1.14873 8.59767 -90.4014 9.67365 -2.47147 -0.602791 -1.99502 -2.49561 -0.493374 -24.5446 -2.17602 -1.318 -4.53197 -2.17602 -1.318 93.5531 -22.249 -102.109 51.5195 -0.742477 63.5692 -43.0336 -12.732 -77.8919 -36.6032 10.7134 -37.4065 -89.149 -44.1988 78.764 -17.4927 10.7543 -31.9576 25.9571 26.9654 -51.8802 26.9313 -16.9254 -59.0447 21.9124 -1.69184 -3.32933 2.61482 -0.42524 2.32198 
119.129 87.0675 186.09 -85.0491 34.2094 -92.365 -168.903 -7.2923 108.137 -25.5824 7.24959 6.09354 74.2575 11.8151 -1.08482 52.6108 6.85893 18.1515 175.089 22.5529 86.7684 -61.4992 -7.08709 -3.52639 87.9798 -19.3171 -1.03661 42.6251 -6.37517 1.90248 -0.921381 8.36851 -90.8587 10.1199 -2.22737 -1.51558 -1.54993 -2.29193 -1.41606 -24.0875 -1.66901 -2.11487 -4.07484 -1.66901 -2.11487 92.8198 -21.8148 -103.945 46.4152 4.23301 54.6454 -53.5791 -22.91 -74.6348 -33.6268 10.0856 -38.32 -87.9016 -40.1718 79.9106 -20.8202 10.1191 -34.4206 30.2701 26.3061 -54.9086 29.4764 -18.5074 -59.0674 27.4562 0.49029 -0.518168 -0.704395 0.69255 2.14532 
118.828 86.3674 179.665 -81.4455 40.2101 -91.4459 -177.369 4.54447 104.904 -52.6194 -3.96059 9.79293 70.15 7.97466 4.6229 30.3372 -0.255473 3.34808 175.074 20.425 92.2101 -58.5223 -11.6409 -1.94868 93.7691 -24.3913 -1.30356 37.8193 -4.60852 3.56689 -0.424313 8.42019 -91.429 10.0097 -1.49576 -2.71514 -1.66302 -1.61379 -2.64674 -24.1773 -0.611007 -3.03884 -4.16463 -0.611019 -3.03885 90.1416 -24.5303 -108.723 39.3943 7.64131 43.5879 -53.0588 -26.332 -71.9964 -33.1263 9.07227 -35.6055 -88.6622 -42.3347 79.139 -16.6999 10.3855 -26.2796 30.9199 24.9837 -55.3409 29.3179 -18.2737 -58.7367 32.7777 3.33751 2.78324 -1.98313 1.99478 1.47328 
